<svg width="252" height="252" viewBox="0 0 252 252" fill="none" xmlns="http://www.w3.org/2000/svg">
<path d="M126.066 193.566C112.716 193.566 99.6654 189.607 88.5651 182.19C77.4647 174.773 68.8131 164.231 63.7042 151.897C58.5953 139.563 57.2585 125.991 59.863 112.897C62.4675 99.8037 68.8963 87.7764 78.3363 78.3363C87.7764 68.8963 99.8037 62.4675 112.897 59.863C125.991 57.2585 139.563 58.5952 151.897 63.7041C164.231 68.8131 174.773 77.4647 182.19 88.565C189.607 99.6653 193.566 112.716 193.566 126.066" stroke="black" stroke-width="15"/>
<path d="M133.844 193.241H193.241V133.844" stroke="black" stroke-opacity="0.25" stroke-width="15"/>
<circle cx="98.4888" cy="98.4889" r="14" transform="rotate(45 98.4888 98.4889)" fill="black"/>
<path fill-rule="evenodd" clip-rule="evenodd" d="M139.46 93.7302C145.855 96.3793 151.322 100.865 155.167 106.621C159.013 112.377 161.066 119.144 161.066 126.066L161.066 161.066L126.066 161.066C119.144 161.066 112.377 159.013 106.621 155.167C100.865 151.322 96.3793 145.855 93.7302 139.46C91.2339 133.433 90.4745 126.836 91.5253 120.414C88.1236 119.337 84.9228 117.45 82.2254 114.752C80.8174 113.344 79.6301 111.799 78.6635 110.16C77.9903 112.166 77.4427 114.22 77.0268 116.312C75.0975 126.011 76.0877 136.064 79.872 145.2C83.6564 154.337 90.0651 162.145 98.2875 167.64C106.51 173.134 116.177 176.066 126.066 176.066L168.566 176.066L176.066 176.066L176.066 168.566L176.066 126.066C176.066 116.177 173.134 106.51 167.639 98.2875C162.145 90.0651 154.336 83.6564 145.2 79.872C136.064 76.0877 126.011 75.0975 116.311 77.0268C114.22 77.4427 112.166 77.9903 110.16 78.6635C111.799 79.6301 113.344 80.8174 114.752 82.2254C117.45 84.9228 119.337 88.1236 120.414 91.5253C126.836 90.4745 133.433 91.2339 139.46 93.7302Z" fill="black"/>
<path d="M168.5 168.5L98.0001 98" stroke="black" stroke-width="15"/>
</svg>
