<svg width="686" height="252" viewBox="0 0 686 252" fill="none" xmlns="http://www.w3.org/2000/svg">
<path d="M126.066 193.566C112.716 193.566 99.6654 189.607 88.5651 182.19C77.4647 174.773 68.8131 164.231 63.7042 151.897C58.5953 139.563 57.2585 125.991 59.863 112.897C62.4675 99.8037 68.8963 87.7764 78.3363 78.3363C87.7764 68.8963 99.8037 62.4675 112.897 59.863C125.991 57.2585 139.563 58.5952 151.897 63.7041C164.231 68.8131 174.773 77.4647 182.19 88.565C189.607 99.6653 193.566 112.716 193.566 126.066" stroke="black" stroke-width="15"/>
<path d="M133.844 193.241H193.241V133.844" stroke="black" stroke-opacity="0.25" stroke-width="15"/>
<circle cx="98.4888" cy="98.4889" r="14" transform="rotate(45 98.4888 98.4889)" fill="black"/>
<path fill-rule="evenodd" clip-rule="evenodd" d="M139.46 93.7302C145.855 96.3793 151.322 100.865 155.167 106.621C159.013 112.377 161.066 119.144 161.066 126.066L161.066 161.066L126.066 161.066C119.144 161.066 112.377 159.013 106.621 155.167C100.865 151.322 96.3793 145.855 93.7302 139.46C91.2339 133.433 90.4745 126.836 91.5253 120.414C88.1236 119.337 84.9228 117.45 82.2254 114.752C80.8174 113.344 79.6301 111.799 78.6635 110.16C77.9903 112.166 77.4427 114.22 77.0268 116.312C75.0975 126.011 76.0877 136.064 79.872 145.2C83.6564 154.337 90.0651 162.145 98.2875 167.64C106.51 173.134 116.177 176.066 126.066 176.066L168.566 176.066L176.066 176.066L176.066 168.566L176.066 126.066C176.066 116.177 173.134 106.51 167.639 98.2875C162.145 90.0651 154.336 83.6564 145.2 79.872C136.064 76.0877 126.011 75.0975 116.311 77.0268C114.22 77.4427 112.166 77.9903 110.16 78.6635C111.799 79.6301 113.344 80.8174 114.752 82.2254C117.45 84.9228 119.337 88.1236 120.414 91.5253C126.836 90.4745 133.433 91.2339 139.46 93.7302Z" fill="black"/>
<path d="M168.5 168.5L98.0001 98" stroke="black" stroke-width="15"/>
<path d="M287.648 168.12C281.003 168.12 274.992 166.701 269.616 163.864C264.315 160.952 260.133 156.995 257.072 151.992C254.011 146.915 252.48 141.24 252.48 134.968C252.48 128.696 254.011 123.059 257.072 118.056C260.133 113.053 264.315 109.133 269.616 106.296C274.992 103.384 281.003 101.928 287.648 101.928C299.296 101.928 308.107 105.549 314.08 112.792L304.896 121.528C300.341 116.451 294.741 113.912 288.096 113.912C283.989 113.912 280.293 114.808 277.008 116.6C273.797 118.392 271.259 120.893 269.392 124.104C267.6 127.315 266.704 130.936 266.704 134.968C266.704 139.075 267.6 142.733 269.392 145.944C271.259 149.155 273.797 151.656 277.008 153.448C280.293 155.24 283.989 156.136 288.096 156.136C294.816 156.136 300.416 153.56 304.896 148.408L314.08 157.256C307.957 164.499 299.147 168.12 287.648 168.12ZM308.48 79.304L293.472 94.648H280.704L265.696 79.304H277.232L287.088 87.592L296.944 79.304H308.48ZM326.869 102.936H340.981V167H326.869V102.936ZM390.351 168.12C383.706 168.12 377.695 166.701 372.319 163.864C367.018 160.952 362.836 156.995 359.775 151.992C356.714 146.915 355.183 141.24 355.183 134.968C355.183 128.696 356.714 123.059 359.775 118.056C362.836 113.053 367.018 109.133 372.319 106.296C377.695 103.384 383.706 101.928 390.351 101.928C401.999 101.928 410.81 105.549 416.783 112.792L407.599 121.528C403.044 116.451 397.444 113.912 390.799 113.912C386.692 113.912 382.996 114.808 379.711 116.6C376.5 118.392 373.962 120.893 372.095 124.104C370.303 127.315 369.407 130.936 369.407 134.968C369.407 139.075 370.303 142.733 372.095 145.944C373.962 149.155 376.5 151.656 379.711 153.448C382.996 155.24 386.692 156.136 390.799 156.136C397.519 156.136 403.119 153.56 407.599 148.408L416.783 157.256C410.66 164.499 401.85 168.12 390.351 168.12ZM411.183 79.304L396.175 94.648H383.407L368.399 79.304H379.935L389.791 87.592L399.647 79.304H411.183ZM457.948 168.12C451.302 168.12 445.292 166.701 439.916 163.864C434.54 160.952 430.321 156.995 427.26 151.992C424.198 146.915 422.668 141.24 422.668 134.968C422.668 128.696 424.198 123.059 427.26 118.056C430.321 112.979 434.54 109.021 439.916 106.184C445.292 103.347 451.302 101.928 457.948 101.928C464.668 101.928 470.716 103.347 476.092 106.184C481.468 109.021 485.686 112.979 488.748 118.056C491.809 123.059 493.34 128.696 493.34 134.968C493.34 141.24 491.809 146.915 488.748 151.992C485.686 156.995 481.468 160.952 476.092 163.864C470.716 166.701 464.668 168.12 457.948 168.12ZM457.948 156.136C461.98 156.136 465.601 155.24 468.812 153.448C472.022 151.581 474.524 149.043 476.316 145.832C478.108 142.621 479.004 139 479.004 134.968C479.004 130.936 478.108 127.315 476.316 124.104C474.524 120.893 472.022 118.392 468.812 116.6C465.601 114.808 461.98 113.912 457.948 113.912C453.99 113.912 450.406 114.845 447.196 116.712C443.985 118.504 441.446 121.005 439.58 124.216C437.788 127.352 436.892 130.936 436.892 134.968C436.892 139 437.788 142.621 439.58 145.832C441.446 149.043 443.985 151.581 447.196 153.448C450.406 155.24 453.99 156.136 457.948 156.136ZM565.748 102.936L537.636 167H523.636L495.412 102.936H510.532L530.916 150.424L551.524 102.936H565.748ZM603.088 145.944V167H588.864V145.72L562.88 102.936H577.888L596.368 133.064L614.848 102.936H629.184L603.088 145.944Z" fill="black"/>
</svg>
